<?xml version="1.0" encoding="utf-8"?>
<!-- Uploaded to: SVG Repo, www.svgrepo.com, Generator: SVG Repo Mixer Tools -->
<svg width="800px" height="800px" viewBox="0 0 1024 1024" class="icon"  version="1.1" xmlns="http://www.w3.org/2000/svg"><path d="M825.7 925.2H338.8c-8.2 0-14.8-6.6-14.8-14.8V668.5c0-8.2 6.6-14.8 14.8-14.8h486.9c8.2 0 14.8 6.6 14.8 14.8v241.9c0 8.2-6.6 14.8-14.8 14.8zM245.2 924.2h-51.4V704.9c0-7.9 6.4-14.4 14.4-14.4h37.1l-0.1 233.7z" fill="#CCCCCC" /><path d="M315.5 512.1h394.2c-0.3-81.7-50.4-151.7-121.5-181.2 9.9-6 19-13.3 27.1-21.6 6.9 6.9 16.5 11.2 27 11.2 21.1 0 38.2-17.1 38.2-38.2 0-17.9-12.3-32.8-28.8-37 0.5-1.8 0.9-3.7 1.4-5.5 12.2-6.4 20.5-19.1 20.5-33.9 0-14.8-8.5-27.7-20.8-34-15-62.9-69.5-109.5-134.5-109.5-64.3 0-118.4 45.7-134 107.6-12.3 6.3-20.7 19.2-20.7 33.9 0 14.2 7.8 26.6 19.3 33.2 0.5 2.5 1.1 5 1.7 7.4-18.5 2.7-32.7 18.6-32.7 37.8 0 21.1 17.1 38.2 38.2 38.2 11.6 0 22-5.2 29-13.3 7.5 7.9 15.8 15 24.8 21-74.6 27.7-128 99.6-128.4 183.9z m111.9-74.2l54.6-94.5c0.7-1.1 2.1-1.5 3.2-0.9l31.5 18.2c0.4 0.2 0.7 0.5 0.9 0.9 0.2-0.4 0.5-0.7 0.9-0.9l31.5-18.2c1.1-0.7 2.6-0.3 3.2 0.9l54.6 94.5c0.7 1.1 0.3 2.6-0.9 3.2l-31.5 18.2c-1.1 0.7-2.6 0.3-3.2-0.9l-54.6-94.5-54.6 94.5c-0.7 1.1-2.1 1.5-3.2 0.9l-31.5-18.2c-1.2-0.6-1.6-2.1-0.9-3.2z" fill="#666666" /><path d="M517.6 363.8c0.4-0.7 0.4-1.6 0-2.3-0.4 0.7-0.4 1.6 0 2.3z" fill="" /><path d="M940 917.8h-22.3V654c0-15.1-14.4-27.3-32-27.3h-88v-23.5c0-15.1-14.4-27.3-32-27.3H266c-17.6 0-32 12.3-32 27.3v23.5h-90.1c-17.6 0-32 12.3-32 27.3v263.9H83.6c-7 0-13.2 3.1-16.6 7.8-2.2 2.4-3.5 5.4-3.5 8.7v1.1c0 3.3 1.3 6.3 3.5 8.7 3.5 4.7 9.6 7.8 16.6 7.8H940c10.8 0 19.6-7.4 19.6-16.5v-1.1c0-9.2-8.8-16.6-19.6-16.6z m-62.3-243.9V916h-80V660.8h66.9c7.2 0 13.1 5.9 13.1 13.1z m-603.7-64h483.7v38.5c-0.4 1.8-0.7 3.6-0.7 5.5V917H274V609.9z m-101.9 50.9h60.4V916h-80.6V681c0-11.2 9-20.2 20.2-20.2z" fill="#666666" /><path d="M367.3 669h52.5v52.5h-52.5zM366.3 798h52.5v52.5h-52.5zM606.4 669h52.5v52.5h-52.5zM605.4 798h52.5v52.5h-52.5zM486.9 669h52.5v52.5h-52.5zM485.9 798h52.5v52.5h-52.5z" fill="#666666" /></svg>